<?xml version="1.0" encoding="UTF-8" standalone="no"?>
<!-- Created with Inkscape (http://www.inkscape.org/) -->

<svg
   width="200mm"
   height="200mm"
   viewBox="0 0 200 200"
   version="1.1"
   id="svg853"
   inkscape:version="1.1.2 (b8e25be833, 2022-02-05)"
   sodipodi:docname="log.svg"
   xmlns:inkscape="http://www.inkscape.org/namespaces/inkscape"
   xmlns:sodipodi="http://sodipodi.sourceforge.net/DTD/sodipodi-0.dtd"
   xmlns="http://www.w3.org/2000/svg"
   xmlns:svg="http://www.w3.org/2000/svg">
  <!-- <sodipodi:namedview
     id="namedview855"
     pagecolor="#ffffff"
     bordercolor="#999999"
     borderopacity="1"
     inkscape:pageshadow="0"
     inkscape:pageopacity="0"
     inkscape:pagecheckerboard="0"
     inkscape:document-units="mm"
     showgrid="false"
     borderlayer="true"
     showborder="true"
     inkscape:zoom="0.74029882"
     inkscape:cx="253.2761"
     inkscape:cy="451.16916"
     inkscape:window-width="1920"
     inkscape:window-height="1017"
     inkscape:window-x="-8"
     inkscape:window-y="-8"
     inkscape:window-maximized="1"
     inkscape:current-layer="layer1" /> -->
  <defs
     id="defs850" />
  <g
     inkscape:label="Layer 1"
     inkscape:groupmode="layer"
     id="layer1">
    <path
       style="fill:#6d1d03;stroke-width:0.191729"
       d="m 90.737762,192.90964 c -13.100097,-0.37456 -26.620713,-2.37684 -39.33317,-5.82433 -7.350779,-1.9934 -9.820996,-3.79051 -13.370119,-9.72688 -8.085883,-13.52456 -13.548469,-31.18451 -16.089611,-52.01569 -0.26993,-2.21446 -0.538637,-4.38926 -0.596653,-4.83282 l -0.105527,-0.80654 -7.514864,-0.0562 -7.5148207,-0.0562 -1.0900896,-0.51101 C 0.32477453,116.8309 0.21263601,109.98122 4.9358593,107.66168 l 1.0852887,-0.53298 7.153766,-0.096 7.153768,-0.096 0.03623,-6.80635 0.03623,-6.806388 75.176552,-0.04801 75.176546,-0.04801 0.11277,2.536114 c 0.0621,1.394893 0.0616,4.497094 0,6.893754 l -0.11367,4.35761 7.26763,0.0566 c 7.18239,0.0562 7.27736,0.0621 8.10151,0.50168 1.27945,0.68275 2.45907,1.87996 3.02954,3.07458 0.42167,0.88274 0.51939,1.365 0.53149,2.61972 0.0136,1.3679 -0.0548,1.67945 -0.61635,2.81994 -0.6862,1.39395 -1.64476,2.34608 -3.08147,3.06085 -0.87659,0.43614 -0.99392,0.44294 -8.4924,0.50027 l -7.60354,0.058 -0.12636,1.18823 c -2.55292,24.00281 -8.26885,42.92056 -17.49628,57.90682 -1.4048,2.28158 -3.83748,4.71172 -5.86349,5.85751 -1.90183,1.07556 -3.6681,1.67538 -8.75957,2.97484 -12.24779,3.12589 -24.8568,4.9408 -36.1408,5.20199 -2.425394,0.0562 -4.798011,0.12545 -5.272562,0.15398 -0.474505,0.0272 -2.94581,-0.009 -5.491752,-0.0806 z M 17.910366,85.127677 C 16.827161,82.130735 16.64994,80.712835 17.125171,78.84543 19.797699,68.344084 40.89206,53.234979 69.460024,41.359882 l 3.619455,-1.50454 -0.125,-1.545574 c -0.160328,-1.979407 -0.514361,-3.035937 -1.41781,-4.229787 -0.996248,-1.31645 -2.645988,-2.143765 -4.802571,-2.408396 -3.725617,-0.457158 -5.480657,-1.712421 -5.478754,-3.918597 0.0012,-1.328181 0.662143,-2.57031 2.276149,-4.277342 3.012839,-3.186405 8.676423,-6.056245 14.51392,-7.354393 2.63222,-0.585366 7.356803,-0.639275 8.950564,-0.102129 2.169083,0.731051 3.18073,1.833487 3.180187,3.465474 -4.08e-4,1.316073 -0.565131,2.426725 -2.120532,4.171304 -1.759479,1.973383 -2.371258,3.303692 -2.369039,5.151577 0.0013,1.116267 0.105525,1.660882 0.465674,2.434438 0.699054,1.50137 1.996934,3.177379 2.354319,3.04024 2.245986,-0.861872 13.981764,-4.188392 18.555714,-5.259641 12.82935,-3.004732 22.43272,-4.311671 31.6352,-4.305285 8.33765,0.0046 13.44534,1.046974 17.06063,3.477653 1.86817,1.255988 2.57139,2.284301 3.73598,5.462993 0.53909,1.471387 0.95509,2.693861 0.92447,2.716551 -0.0317,0.02264 -6.31092,2.309528 -13.95609,5.081831 -29.2517,10.607243 -41.49509,15.051977 -46.494135,16.878802 -2.847168,1.040452 -11.51811,4.189053 -19.26871,6.996909 -7.750646,2.80781 -15.947038,5.785368 -18.21422,6.616806 -2.267181,0.831392 -5.675178,2.067044 -7.57329,2.745898 -1.898111,0.67881 -4.745279,1.712423 -6.327039,2.296893 -1.581759,0.584469 -6.844706,2.498433 -11.695422,4.253201 -4.850761,1.754814 -10.80393,3.918191 -13.229265,4.807554 -2.42538,0.889318 -4.504698,1.616678 -4.620777,1.616362 -0.115943,-4.08e-4 -0.62419,-1.143759 -1.129175,-2.541007 z m 125.611124,1.056575 c -0.0674,-0.109149 0.0272,-0.240944 0.21105,-0.293027 4.31326,-1.228225 11.48786,-3.377018 13.29915,-3.983091 15.09123,-5.049856 21.95749,-10.642833 24.23392,-19.739892 0.90145,-3.602518 1.13085,-6.193977 1.44262,-16.296959 0.26721,-8.655408 0.83896,-13.336466 2.1666,-17.734869 1.71632,-5.686092 4.60257,-11.227795 8.09802,-15.548366 1.39281,-1.721562 5.4047,-5.7449294 5.56684,-5.5827679 0.0461,0.045969 -0.60154,1.4113102 -1.43891,3.0340899 -3.21624,6.232867 -5.34918,12.836634 -6.49538,20.110194 -0.26857,1.705627 -0.31976,3.843506 -0.33379,13.996162 -0.0136,8.40614 -0.0883,12.526733 -0.25634,13.80446 -0.79331,6.023032 -2.24273,10.239731 -4.87631,14.186363 -1.29616,1.942361 -4.82055,5.412676 -6.88429,6.778673 -5.66707,3.750979 -13.25988,6.152763 -22.20555,7.024146 -3.20301,0.312049 -12.37505,0.491308 -12.52736,0.24502 z m 6.49747,-13.635698 c 0.10009,-0.09058 0.87237,-0.671563 1.71599,-1.290997 13.00644,-9.550505 18.31006,-18.016464 18.31006,-29.227834 0,-4.588304 -0.67474,-9.35958 -2.45948,-17.392338 -0.40399,-1.819035 -0.65576,-3.307316 -0.55907,-3.307316 0.34556,0 2.6988,2.42529 3.8883,4.007457 4.71521,6.271694 6.5904,14.642771 5.05837,22.581381 -0.53306,2.762384 -1.1611,4.598131 -2.48077,7.251231 -3.93848,7.917974 -11.51064,13.916116 -21.4455,16.987561 -1.88556,0.58293 -2.33638,0.669797 -2.0279,0.390855 z"
       id="path962" />
  </g>
</svg>
